<svg width="1440" height="1080" viewBox="0 0 1440 1080" fill="none" xmlns="http://www.w3.org/2000/svg">
  <rect width="1440" height="1080" rx="56" fill="#081937"/>
  <rect x="48" y="48" width="1344" height="984" rx="40" fill="url(#paint0_linear)"/>
  <rect x="96" y="104" width="1248" height="96" rx="24" fill="#F8FBFF"/>
  <circle cx="156" cy="152" r="24" fill="#0B67FF"/>
  <rect x="208" y="128" width="216" height="18" rx="9" fill="#102241"/>
  <rect x="208" y="158" width="154" height="12" rx="6" fill="#7A8AA5"/>
  <rect x="1038" y="124" width="110" height="36" rx="18" fill="#EAF2FF"/>
  <rect x="1168" y="124" width="128" height="36" rx="18" fill="#0B67FF"/>
  <rect x="1168" y="124" width="128" height="36" rx="18" fill="url(#paint1_linear)"/>
  <rect x="96" y="248" width="736" height="336" rx="32" fill="#FFFFFF"/>
  <rect x="128" y="288" width="212" height="18" rx="9" fill="#102241"/>
  <rect x="128" y="324" width="426" height="12" rx="6" fill="#8EA1BF"/>
  <rect x="128" y="360" width="664" height="176" rx="24" fill="#ECF4FF"/>
  <path d="M178 476C230 426 306 414 362 430C416 446 464 498 530 506C590 514 644 482 700 438C726 418 748 406 760 400" stroke="#0B67FF" stroke-width="18" stroke-linecap="round"/>
  <circle cx="272" cy="444" r="18" fill="#FFC941"/>
  <circle cx="520" cy="500" r="18" fill="#12A05D"/>
  <circle cx="700" cy="438" r="18" fill="#4F46E5"/>
  <rect x="864" y="248" width="480" height="336" rx="32" fill="#FFFFFF"/>
  <rect x="896" y="288" width="168" height="18" rx="9" fill="#102241"/>
  <rect x="896" y="324" width="228" height="12" rx="6" fill="#8EA1BF"/>
  <rect x="896" y="372" width="192" height="164" rx="24" fill="#0E213F"/>
  <rect x="1116" y="372" width="196" height="74" rx="24" fill="#ECF4FF"/>
  <rect x="1116" y="462" width="196" height="74" rx="24" fill="#ECF4FF"/>
  <rect x="934" y="408" width="68" height="12" rx="6" fill="#6EA8FF"/>
  <rect x="934" y="436" width="118" height="12" rx="6" fill="#8EBBFF"/>
  <rect x="1152" y="404" width="98" height="14" rx="7" fill="#102241"/>
  <rect x="1152" y="428" width="74" height="10" rx="5" fill="#7A8AA5"/>
  <rect x="1152" y="492" width="112" height="14" rx="7" fill="#102241"/>
  <rect x="1152" y="516" width="86" height="10" rx="5" fill="#7A8AA5"/>
  <rect x="96" y="616" width="412" height="320" rx="32" fill="#FFFFFF"/>
  <rect x="128" y="654" width="186" height="18" rx="9" fill="#102241"/>
  <rect x="128" y="696" width="148" height="110" rx="28" fill="#ECF4FF"/>
  <rect x="294" y="696" width="182" height="110" rx="28" fill="#EFFBF4"/>
  <rect x="128" y="830" width="348" height="74" rx="24" fill="#0B67FF" fill-opacity="0.1"/>
  <rect x="540" y="616" width="804" height="320" rx="32" fill="#FFFFFF"/>
  <rect x="576" y="654" width="224" height="18" rx="9" fill="#102241"/>
  <rect x="576" y="708" width="732" height="52" rx="24" fill="#F3F7FD"/>
  <rect x="576" y="780" width="732" height="52" rx="24" fill="#F3F7FD"/>
  <rect x="576" y="852" width="420" height="52" rx="24" fill="#F3F7FD"/>
  <rect x="1226" y="708" width="82" height="24" rx="12" fill="#129B57"/>
  <rect x="1204" y="780" width="104" height="24" rx="12" fill="#FFC941"/>
  <rect x="930" y="852" width="148" height="24" rx="12" fill="#4F46E5"/>
  <defs>
    <linearGradient id="paint0_linear" x1="720" y1="48" x2="720" y2="1032" gradientUnits="userSpaceOnUse">
      <stop stop-color="#F7FBFF"/>
      <stop offset="1" stop-color="#E9F1FF"/>
    </linearGradient>
    <linearGradient id="paint1_linear" x1="1232" y1="124" x2="1232" y2="160" gradientUnits="userSpaceOnUse">
      <stop stop-color="#0B67FF"/>
      <stop offset="1" stop-color="#245FE7"/>
    </linearGradient>
  </defs>
</svg>
