<svg width="1440" height="1080" viewBox="0 0 1440 1080" fill="none" xmlns="http://www.w3.org/2000/svg">
  <rect width="1440" height="1080" rx="56" fill="#071225"/>
  <rect x="40" y="40" width="1360" height="1000" rx="44" fill="#0B1C37"/>
  <rect x="88" y="96" width="332" height="888" rx="34" fill="#112547"/>
  <rect x="136" y="148" width="112" height="18" rx="9" fill="#F8FBFF"/>
  <rect x="136" y="184" width="184" height="12" rx="6" fill="#A9B6CC"/>
  <rect x="136" y="244" width="236" height="176" rx="28" fill="url(#paint0_linear)"/>
  <rect x="136" y="454" width="236" height="236" rx="28" fill="#F8FBFF"/>
  <rect x="136" y="724" width="236" height="206" rx="28" fill="#0F233F"/>
  <rect x="472" y="96" width="642" height="888" rx="34" fill="#F8FBFF"/>
  <rect x="532" y="148" width="200" height="20" rx="10" fill="#102241"/>
  <rect x="532" y="186" width="286" height="12" rx="6" fill="#7A8AA5"/>
  <rect x="532" y="246" width="522" height="204" rx="28" fill="#EDF4FF"/>
  <rect x="532" y="486" width="522" height="430" rx="28" fill="#0F1727"/>
  <rect x="1162" y="96" width="190" height="888" rx="34" fill="#112547"/>
  <rect x="1204" y="148" width="98" height="18" rx="9" fill="#F8FBFF"/>
  <rect x="1204" y="186" width="116" height="12" rx="6" fill="#A9B6CC"/>
  <rect x="1204" y="246" width="104" height="42" rx="21" fill="#FFC941"/>
  <rect x="1204" y="308" width="104" height="42" rx="21" fill="#1B355E"/>
  <rect x="1204" y="370" width="104" height="42" rx="21" fill="#1B355E"/>
  <rect x="1204" y="454" width="104" height="42" rx="21" fill="#1B355E"/>
  <rect x="1204" y="526" width="104" height="248" rx="28" fill="#F8FBFF"/>
  <rect x="1204" y="798" width="104" height="118" rx="28" fill="url(#paint1_linear)"/>
  <rect x="564" y="282" width="122" height="14" rx="7" fill="#102241"/>
  <rect x="564" y="312" width="396" height="10" rx="5" fill="#7A8AA5"/>
  <rect x="564" y="344" width="442" height="10" rx="5" fill="#7A8AA5"/>
  <rect x="564" y="376" width="328" height="10" rx="5" fill="#7A8AA5"/>
  <rect x="572" y="530" width="104" height="10" rx="5" fill="#8EBBFF"/>
  <rect x="572" y="556" width="156" height="10" rx="5" fill="#6EA8FF"/>
  <rect x="572" y="610" width="410" height="14" rx="7" fill="#C6D7F4"/>
  <rect x="572" y="640" width="350" height="14" rx="7" fill="#C6D7F4"/>
  <rect x="572" y="700" width="362" height="164" rx="24" fill="#16233A"/>
  <rect x="956" y="700" width="62" height="164" rx="24" fill="#0B67FF"/>
  <rect x="184" y="280" width="140" height="14" rx="7" fill="#F8FBFF"/>
  <rect x="184" y="310" width="110" height="10" rx="5" fill="#DBE8FF"/>
  <rect x="184" y="340" width="88" height="10" rx="5" fill="#DBE8FF"/>
  <circle cx="204" cy="514" r="24" fill="#0B67FF"/>
  <rect x="244" y="500" width="82" height="12" rx="6" fill="#102241"/>
  <rect x="244" y="524" width="64" height="10" rx="5" fill="#7A8AA5"/>
  <circle cx="204" cy="584" r="24" fill="#12A05D"/>
  <rect x="244" y="570" width="102" height="12" rx="6" fill="#102241"/>
  <rect x="244" y="594" width="84" height="10" rx="5" fill="#7A8AA5"/>
  <circle cx="204" cy="654" r="24" fill="#FFC941"/>
  <rect x="244" y="640" width="74" height="12" rx="6" fill="#102241"/>
  <rect x="244" y="664" width="92" height="10" rx="5" fill="#7A8AA5"/>
  <defs>
    <linearGradient id="paint0_linear" x1="254" y1="244" x2="254" y2="420" gradientUnits="userSpaceOnUse">
      <stop stop-color="#0B67FF"/>
      <stop offset="1" stop-color="#4B8BFF"/>
    </linearGradient>
    <linearGradient id="paint1_linear" x1="1256" y1="798" x2="1256" y2="916" gradientUnits="userSpaceOnUse">
      <stop stop-color="#0B67FF"/>
      <stop offset="1" stop-color="#2E76FF"/>
    </linearGradient>
  </defs>
</svg>
